<svg id="ecUaRjEoSwx1" xmlns="http://www.w3.org/2000/svg" xmlns:xlink="http://www.w3.org/1999/xlink" viewBox="0 0 300 300" shape-rendering="geometricPrecision" text-rendering="geometricPrecision" project-id="88ca57c49bd9490098ef775f4129220b" export-id="a3335f71cf2c47bf81c845d5de6a9cfa" cached="false"><path d="" fill="none" stroke="#3f5787" stroke-width="0.6"/><g transform="translate(-0.00003 0.014557)"><polygon points="50,23.15 19,76.85 81,76.85 50,23.15" transform="matrix(-0.798315 0 0 -0.813429 295.37964 196.022111)" fill="#1a8f7a"/><path d="M33.31638,150c0-64.43724,52.24104-116.67395,116.68363-116.67395s116.68363,52.23671,116.68363,116.67395-52.24104,116.67395-116.68363,116.67395-116.68363-52.23671-116.68363-116.67395ZM150,244.89015c52.49007,0,95.04168-42.48377,95.04168-94.89015s-42.55161-94.89015-95.04168-94.89015-95.04168,42.48377-95.04168,94.89015s42.55161,94.89015,95.04168,94.89015Z" transform="translate(-0.000005 0)" fill="#1a8f7a"/><path d="M157.56727,223.85757c34.963534-3.539141,62.760859-31.336466,66.3-66.3h-19.579324c-3.337777,24.255633-22.492082,43.465717-46.720666,46.887992v19.411998l-.00001.00001Z" transform="translate(0.00186 0)" fill="#1a8f7a"/><path d="M142.04385,76.16052c-34.87308,3.62242-62.57473,31.38224-66.1074,66.28191h19.19099c3.34679-24.32116,22.59525-43.56961,46.91641-46.91641v-19.3655Z" transform="translate(0 -0.0391)" fill="#1a8f7a"/><path d="M142.23827,204.50038c-24.41295-3.2707-43.75514-22.55688-47.11085-46.94282h-19.19099c3.53924,34.96451,31.33734,62.76261,66.30185,66.30185v-19.35903h-.00001Z" transform="translate(0 -0.00184)" fill="#1a8f7a"/><path d="M157.37284,95.50659c24.32117,3.3468,43.56962,22.59525,46.91642,46.91642h19.57987c-3.54579-35.0293-31.44044-62.86561-66.49629-66.32127v19.40485Z" fill="#1a8f7a"/><path d="M184.84591,115.13953L162.9185,162.89765l.00233.00233-.0043.00198-.00198.0043-.00233-.00233-47.75812,21.92741l21.92741-47.75812-.00233-.00233.0043-.00198.00198-.0043.00233.00233l47.75812-21.92741Zm-34.63405,38.96435c2.27817,0,4.125-1.84683,4.125-4.125s-1.84683-4.125-4.125-4.125-4.125,1.84683-4.125,4.125s1.84683,4.125,4.125,4.125Z" fill="#1a8f7a"/></g></svg>
