<svg xmlns="http://www.w3.org/2000/svg" viewBox="0 0 313 309">
  <g fill="#FFFFFF">
    <path d="M233.2 22.8c-40.7-26.2-95.1-27.5-138.1-5.7C9.2 51.6-21.2 135.2 11.9 204.2c33.1 69.1 120.2 101.3 195.2 72.6 72.1-27.8 108.6-108.2 81-180.8-7.9-20.2-21.3-38.9-36.1-54.5l-20.4 20.6c10.6 10.8 20.4 23.2 27 37 21.7 45.1-.8 99-52 117.7-45 16.8-97.6-5.7-114.7-51.7-17-45.9 6.1-97.2 51-114 42.5-16 88.8-1.7 107.7 30.7l-18.3 18.5 65.8 14.2L260 9l-17.6 13.8z"/>
    <path d="M156.3 54c-55.5 0-100.6 45.1-100.6 100.8 0 55.7 45.1 100.8 100.6 100.8s100.6-45.1 100.6-100.8c0-55.7-45.1-100.8-100.6-100.8zm0 183.1c-45.6 0-82.6-37-82.6-82.3 0-45.3 37-82.3 82.6-82.3s82.6 37 82.6 82.3c0 45.3-37 82.3-82.6 82.3z"/>
    <path d="m161.6 80.1-5.3-34.1-5.3 34c-44.6 2.5-79.6 37-82.6 82.2l34.1 5.3-34 5.3c2.6 44.7 37.2 79.4 81.7 82.2l5.3-33.8 5.3 33.9c44.7-2.7 79.5-37.3 82.3-81.9l-34.1-5.3 34-5.3c-2.7-44.7-37.2-79.3-81.8-82.2z"/>
    <path d="m152.2 154.2 15.1-33.2 33.2-15.1-15.1 33.1-33.2 15.2zm-13.4 28.8 33.2-15.1 15.2-33.2-33.2 15.1-15.2 33.2zm20.7 6.7c-3.5 3.6-8.9 3.6-12.5.1-3.6-3.5-3.6-8.9-.1-12.5s8.9-3.6 12.5-.1c3.6 3.5 3.6 8.9.1 12.5z"/>
  </g>
</svg>